<svg width="210" height="77" viewBox="0 0 210 77" fill="none" xmlns="http://www.w3.org/2000/svg">
<g clip-path="url(#clip0_1_26)">
<path d="M15.5 23.2C15.1 23.2 15 23 15.2 22.7L17.3 20C17.5 19.7 18 19.5 18.4 19.5H54.1C54.5 19.5 54.6 19.8 54.4 20.1L52.7 22.7C52.5 23 52 23.3 51.7 23.3L15.5 23.2Z" fill="#00ADD8"/>
<path d="M0.4 32.4C0 32.4 -0.1 32.2 0.1 31.9L2.2 29.2C2.4 28.9 2.9 28.7 3.3 28.7H48.9C49.3 28.7 49.5 29 49.4 29.3L48.6 31.7C48.5 32.1 48.1 32.3 47.7 32.3L0.4 32.4Z" fill="#00ADD8"/>
<path d="M24.6 41.6C24.2 41.6 24.1 41.3 24.3 41L25.7 38.5C25.9 38.2 26.3 37.9 26.7 37.9H46.7C47.1 37.9 47.3 38.2 47.3 38.6L47.1 41C47.1 41.4 46.7 41.7 46.4 41.7L24.6 41.6Z" fill="#00ADD8"/>
<path d="M128.4 21.4C122.1 23 117.8 24.2 111.6 25.8C110.1 26.2 110 26.3 108.7 24.8C107.2 23.1 106.1 22 104 21C97.7 17.9 91.6 18.8 85.9 22.5C79.1 26.9 75.6 33.4 75.7 41.5C75.8 49.5 81.3 56.1 89.2 57.2C96 58.1 101.7 55.7 106.2 50.6C107.1 49.5 107.9 48.3 108.9 46.9C105.3 46.9 100.8 46.9 89.6 46.9C87.5 46.9 87 45.6 87.7 43.9C89 40.8 91.4 35.6 92.8 33C93.1 32.4 93.8 31.4 95.3 31.4C100.4 31.4 119.2 31.4 131.7 31.4C131.5 34.1 131.5 36.8 131.1 39.5C130 46.7 127.3 53.3 122.9 59.1C115.7 68.6 106.3 74.5 94.4 76.1C84.6 77.4 75.5 75.5 67.5 69.5C60.1 63.9 55.9 56.5 54.8 47.3C53.5 36.4 56.7 26.6 63.3 18C70.4 8.69999 79.8 2.79999 91.3 0.699995C100.7 -1.00001 109.7 0.0999942 117.8 5.59999C123.1 9.09999 126.9 13.9 129.4 19.7C130 20.6 129.6 21.1 128.4 21.4Z" fill="#00ADD8"/>
</g>
<path d="M191.054 65.4622C199.066 58.2733 204.186 48.589 205.307 38.5C206.428 28.411 203.461 18.7267 197.045 11.5378C196.921 11.3539 196.771 11.1889 196.599 11.0467C190.06 3.96777 180.631 0 170.349 0C160.067 0 149.757 3.96777 141.644 11.0467C141.441 11.1889 141.255 11.3539 141.089 11.5378C133.077 18.7267 127.957 28.411 126.836 38.5C125.715 48.589 128.682 58.2733 135.098 65.4622C135.222 65.6462 135.372 65.8112 135.544 65.9534C142.083 73.0323 151.512 77 161.794 77C172.076 77 182.386 73.0323 190.499 65.9534C190.702 65.8112 190.888 65.6462 191.054 65.4622ZM132.682 41.4615H141.793C141.864 45.6748 143.109 49.6669 145.397 53.0161L138.255 59.3347C134.503 54.2707 132.559 48.0353 132.682 41.4615ZM142.885 17.6653L148.623 23.984C145.59 27.3331 143.458 31.3253 142.451 35.5385H133.34C134.678 28.9647 138.008 22.7293 142.885 17.6653ZM199.461 35.5385H190.35C190.279 31.3253 189.034 27.3331 186.746 23.984L193.888 17.6653C197.64 22.7293 199.584 28.9647 199.461 35.5385ZM182.943 19.7954C179.82 17.1851 175.936 15.5281 171.701 14.9994L172.694 6.0591C179.327 6.65521 185.394 9.24299 190.085 13.4768L182.943 19.7954ZM165.665 14.9994C161.312 15.5281 157.06 17.1851 153.357 19.7954L147.619 13.4768C153.25 9.24299 159.892 6.65521 166.658 6.0591L165.665 14.9994ZM149.2 57.2046C152.323 59.8149 156.207 61.4719 160.442 62.0006L159.449 70.9409C152.816 70.3448 146.749 67.757 142.058 63.5232L149.2 57.2046ZM166.478 62.0006C170.831 61.4719 175.083 59.8149 178.786 57.2046L184.524 63.5232C178.893 67.757 172.251 70.3448 165.485 70.9409L166.478 62.0006ZM183.52 53.0161C186.553 49.6669 188.685 45.6748 189.692 41.4615H198.803C197.465 48.0353 194.135 54.2707 189.258 59.3347L183.52 53.0161Z" fill="#00ADD8"/>
<defs>
<clipPath id="clip0_1_26">
<rect width="205.4" height="76.7" fill="white"/>
</clipPath>
</defs>
</svg>
